<?xml version="1.0" standalone="no"?>
<!DOCTYPE svg PUBLIC "-//W3C//DTD SVG 20010904//EN"
 "http://www.w3.org/TR/2001/REC-SVG-20010904/DTD/svg10.dtd">
<svg version="1.0" xmlns="http://www.w3.org/2000/svg"
 width="1200.000000pt" height="1200.000000pt" viewBox="0 0 1200.000000 1200.000000"
 preserveAspectRatio="xMidYMid meet">

<g transform="translate(0.000000,1200.000000) scale(0.100000,-0.100000)"
fill="#000000" stroke="none">
<path d="M3010 9120 l0 -150 565 0 565 0 0 150 0 150 -565 0 -565 0 0 -150z"/>
<path d="M2195 8451 c-200 -50 -349 -192 -421 -401 -18 -53 -19 -128 -19
-2450 0 -2314 1 -2397 19 -2450 71 -209 238 -363 441 -405 106 -22 7464 -22
7570 0 220 46 404 228 451 447 11 52 13 470 14 2418 0 2606 5 2417 -65 2549
-69 130 -181 226 -325 279 l-75 27 -3760 2 c-3556 2 -3764 1 -3830 -16z m7580
-292 c72 -27 137 -92 164 -164 21 -55 21 -66 21 -1355 l0 -1300 -481 0 -481 0
6 58 c45 394 -48 826 -249 1157 -269 444 -687 753 -1180 874 -164 40 -226 46
-450 45 -199 0 -232 -3 -348 -27 -377 -80 -676 -239 -949 -505 -277 -270 -454
-591 -536 -971 -25 -118 -27 -142 -27 -379 l0 -252 -1492 0 c-821 0 -1493 -3
-1493 -7 0 -5 135 -206 299 -448 165 -242 296 -445 293 -451 -4 -5 -139 -204
-299 -441 -161 -237 -293 -434 -293 -437 0 -3 1728 -6 3840 -6 l3840 0 0 -145
c0 -120 -3 -153 -20 -198 -24 -63 -80 -123 -147 -158 l-48 -24 -3745 0 -3745
0 -49 25 c-27 14 -68 46 -91 72 -82 91 -75 -139 -75 2479 l0 2338 21 56 c26
70 92 137 162 164 52 20 69 20 3774 20 l3722 1 56 -21z m-2291 -1003 c425 -98
780 -353 1014 -728 91 -146 176 -371 208 -553 19 -109 25 -377 11 -477 l-8
-58 -178 0 -178 0 8 43 c27 146 18 362 -21 517 -121 470 -510 832 -984 915
-112 19 -318 19 -429 0 -488 -85 -885 -455 -998 -931 -31 -131 -41 -271 -29
-399 5 -63 13 -121 16 -129 5 -14 -15 -16 -174 -16 l-179 0 -7 48 c-41 318 13
642 154 922 220 438 624 751 1097 849 142 30 139 29 358 27 177 -2 214 -6 319
-30z m-169 -627 c290 -50 561 -267 684 -547 61 -139 75 -210 74 -382 0 -104
-5 -171 -15 -205 l-14 -50 -909 0 -910 0 -13 55 c-9 33 -15 112 -15 195 -1
114 3 157 21 230 46 186 173 388 316 503 224 182 492 250 781 201z m2643
-2469 l-3 -392 -260 384 c-143 210 -259 388 -259 394 1 6 118 183 260 393
l259 382 3 -385 c1 -211 1 -561 0 -776z m-3828 1133 c0 -10 -67 -331 -148
-713 l-148 -695 -103 -3 -103 -3 7 31 7 30 -50 -31 c-90 -55 -163 -54 -205 3
-40 54 -35 113 47 498 42 195 83 375 92 399 19 50 74 115 115 137 50 25 102
18 153 -21 31 -24 48 -31 51 -23 5 17 85 391 85 401 0 4 45 7 100 7 89 0 100
-2 100 -17z m354 0 c-21 -88 -84 -396 -81 -399 1 -2 24 11 50 28 60 39 134 49
173 23 33 -21 54 -72 54 -129 0 -25 -34 -206 -76 -403 -82 -389 -105 -460
-169 -509 -68 -52 -147 -49 -201 6 -37 37 -44 37 -44 0 l0 -30 -106 0 c-81 0
-105 3 -102 13 3 6 72 328 153 715 l149 702 102 0 c92 0 102 -2 98 -17z m2696
8 c0 -8 -281 -1341 -295 -1398 -5 -22 -10 -23 -106 -23 l-101 0 6 31 6 31 -27
-17 c-70 -46 -96 -57 -138 -57 -73 -2 -115 51 -115 145 0 48 135 715 161 794
15 48 73 118 112 137 58 27 109 21 161 -19 38 -29 46 -32 50 -17 3 9 21 94 41
187 20 94 39 180 42 193 5 21 10 22 104 22 54 0 99 -4 99 -9z m-5404 -366 c14
-14 30 -39 35 -55 l11 -29 51 38 c70 52 110 71 149 71 68 0 108 -55 108 -147
-1 -34 -40 -240 -94 -493 l-92 -435 -97 -3 c-97 -3 -98 -3 -92 20 17 70 175
824 175 835 0 7 -9 17 -20 23 -22 12 -65 -5 -89 -34 -8 -9 -53 -202 -101 -429
l-87 -412 -97 -3 c-96 -3 -97 -3 -91 20 19 81 175 825 175 835 0 7 -9 17 -20
23 -24 13 -73 -9 -94 -43 -7 -12 -48 -188 -90 -392 -43 -203 -82 -387 -87
-407 l-10 -38 -99 0 c-55 0 -100 2 -100 5 0 20 223 1052 229 1058 11 11 196 4
195 -8 -1 -5 -5 -23 -8 -39 -7 -29 -7 -29 16 -13 112 81 179 97 224 52z m880
4 c61 -29 86 -74 92 -163 3 -59 -6 -117 -56 -356 -33 -157 -70 -311 -82 -342
-26 -71 -103 -158 -165 -188 -65 -32 -177 -31 -234 1 -60 33 -83 76 -89 163
-3 59 5 114 52 336 32 146 66 293 77 327 35 107 105 190 191 228 51 22 163 19
214 -6z m624 -1 c62 -32 93 -94 92 -186 -1 -97 -114 -619 -151 -698 -57 -122
-152 -186 -275 -187 -76 0 -115 14 -152 55 -68 74 -66 155 10 503 71 329 97
395 189 475 49 43 97 59 177 60 49 0 77 -6 110 -22z m1916 3 c22 -10 50 -31
62 -45 27 -35 46 -126 37 -185 -20 -137 -127 -608 -149 -656 -27 -59 -95 -134
-146 -160 -86 -44 -215 -37 -275 16 -77 68 -76 152 4 524 70 323 90 375 177
454 30 28 70 55 87 60 56 16 158 12 203 -8z m621 8 c35 -13 80 -55 100 -94 27
-50 17 -125 -62 -495 -42 -195 -79 -383 -82 -418 l-6 -63 -101 3 -101 3 -3 38
-3 38 -45 -40 c-47 -41 -111 -63 -158 -54 -65 13 -103 95 -92 198 23 211 127
351 342 458 38 19 75 41 81 49 15 18 47 172 40 192 -4 10 -18 16 -36 16 -35 0
-57 -30 -74 -101 l-12 -49 -101 0 -102 0 10 42 c36 160 178 288 320 288 31 0
69 -5 85 -11z m689 -96 l-22 -107 -56 -1 c-65 -1 -128 -35 -151 -82 -8 -16
-50 -198 -93 -405 l-79 -378 -102 0 c-57 0 -103 1 -103 3 1 1 52 241 114 532
l112 530 102 3 c56 1 102 -1 102 -5 0 -4 -5 -25 -9 -47 l-9 -38 31 30 c39 38
111 71 153 72 l31 0 -21 -107z"/>
<path d="M2660 6840 l0 -610 925 0 925 0 0 610 0 610 -925 0 -925 0 0 -610z
m1560 5 l0 -315 -630 0 -630 0 0 315 0 315 630 0 630 0 0 -315z"/>
<path d="M5721 4644 c-12 -15 -21 -30 -21 -34 0 -3 -29 -143 -64 -310 -47
-224 -62 -309 -55 -323 14 -25 57 -18 80 13 11 16 42 141 83 330 58 275 63
307 50 328 -19 29 -48 28 -73 -4z"/>
<path d="M6393 4655 c-28 -20 -32 -33 -103 -368 -64 -305 -65 -327 -16 -327
46 0 56 28 122 337 35 164 63 314 61 333 -2 41 -28 51 -64 25z"/>
<path d="M8773 4648 c-17 -18 -36 -94 -88 -341 -71 -337 -72 -347 -20 -347 45
0 55 29 121 337 35 164 64 309 64 324 0 50 -42 65 -77 27z"/>
<path d="M4461 4653 c-12 -14 -24 -36 -26 -47 -36 -155 -125 -588 -125 -608 0
-34 34 -60 63 -49 46 17 59 55 123 353 66 305 72 346 52 366 -21 21 -65 14
-87 -15z"/>
<path d="M5080 4648 c-11 -18 -23 -42 -25 -53 -48 -206 -125 -594 -121 -611
14 -55 80 -49 110 10 23 44 138 593 134 641 -3 38 -5 40 -40 43 -33 3 -40 -1
-58 -30z"/>
<path d="M7010 4658 c-25 -27 -25 -27 -100 -375 -62 -290 -64 -321 -26 -336
26 -10 64 10 81 43 8 16 45 166 81 333 72 336 73 357 15 357 -18 0 -38 -9 -51
-22z"/>
<path d="M7575 4228 c-57 -58 -95 -140 -95 -207 0 -45 15 -61 52 -54 48 9 65
41 92 166 14 65 26 125 26 133 0 26 -23 14 -75 -38z"/>
</g>
</svg>
